<svg xmlns="http://www.w3.org/2000/svg" width="32" height="32" viewBox="0 0 32 32">
  <!-- Background -->
  <rect width="32" height="32" rx="6" fill="#3b82f6"/>
  
  <!-- Chart bars -->
  <rect x="6" y="20" width="3" height="8" fill="#10b981" rx="1"/>
  <rect x="10" y="17" width="3" height="11" fill="#10b981" rx="1"/>
  <rect x="14" y="14" width="3" height="14" fill="#10b981" rx="1"/>
  <rect x="18" y="16" width="3" height="12" fill="#10b981" rx="1"/>
  <rect x="22" y="12" width="3" height="16" fill="#10b981" rx="1"/>
  
  <!-- Dollar sign -->
  <circle cx="16" cy="8" r="5" fill="#ffffff" opacity="0.2"/>
  <path d="M16 4v2m0 16v2m-4-10a4 4 0 014-4h2a2 2 0 010 4h-2m0 0h2a2 2 0 010 4h-2m0-4v4" stroke="#ffffff" stroke-width="2" stroke-linecap="round" stroke-linejoin="round" fill="none"/>
</svg>